<?xml version="1.0" encoding="UTF-8"?>
<svg version="1.1" xmlns="http://www.w3.org/2000/svg" width="1024" height="1024">
<path d="M0 0 C337.92 0 675.84 0 1024 0 C1024 337.92 1024 675.84 1024 1024 C686.08 1024 348.16 1024 0 1024 C0 686.08 0 348.16 0 0 Z " fill="#EFEFEF" transform="translate(0,0)"/>
<path d="M0 0 C1.04800781 0.4228125 2.09601563 0.845625 3.17578125 1.28125 C22.55966385 9.92983056 34.67663159 27.04191344 42.3203125 46.33203125 C45.64972331 56.33190498 45.30258139 65.56094204 45 76 C35.43 76 25.86 76 16 76 C15.896875 73.73125 15.79375 71.4625 15.6875 69.125 C14.87449047 55.91002931 10.68724707 44.73475772 0.8515625 35.52734375 C-10.69587618 26.00192492 -23.21143183 24.04899496 -37.796875 24.7734375 C-48.91394137 25.91668191 -58.46202851 33.48659239 -65.3984375 41.80078125 C-78.5788267 59.89970593 -74.47041919 82.28718663 -75 104 C-47.28 104 -19.56 104 9 104 C6.10290431 106.89709569 3.54323288 109.15375713 0.3125 111.5625 C-12.63140416 121.92142477 -19.46278513 135.7301958 -25 151 C-27.97 151 -30.94 151 -34 151 C-34 163.54 -34 176.08 -34 189 C-36.67822081 186.32177919 -38.74341779 184.15921509 -40.8828125 181.1640625 C-41.40593018 180.43574219 -41.92904785 179.70742188 -42.46801758 178.95703125 C-43.01482178 178.18746094 -43.56162598 177.41789063 -44.125 176.625 C-44.69178467 175.83222656 -45.25856934 175.03945313 -45.8425293 174.22265625 C-47.00130063 172.60151482 -48.15877409 170.9794449 -49.31494141 169.35644531 C-50.89011447 167.15366779 -52.47874894 164.96154017 -54.07421875 162.7734375 C-54.53876465 162.13325684 -55.00331055 161.49307617 -55.48193359 160.83349609 C-56.35272913 159.63355582 -57.22663654 158.43586618 -58.10400391 157.24072266 C-61 153.22612229 -61 153.22612229 -61 151 C-66.28 151 -71.56 151 -77 151 C-77 172.12 -77 193.24 -77 215 C-72.05 215 -67.1 215 -62 215 C-62 202.46 -62 189.92 -62 177 C-56.37414966 182.62585034 -56.37414966 182.62585034 -54.2734375 185.4609375 C-53.56912598 186.40525635 -53.56912598 186.40525635 -52.85058594 187.36865234 C-52.36364258 188.03074707 -51.87669922 188.6928418 -51.375 189.375 C-50.60591309 190.41261475 -50.60591309 190.41261475 -49.82128906 191.47119141 C-48.75177531 192.91565716 -47.6840867 194.36147595 -46.61816406 195.80859375 C-45.01224619 197.98341555 -43.3942577 200.14876931 -41.7734375 202.3125 C-40.76527663 203.66640733 -39.75745078 205.0205642 -38.75 206.375 C-38.27224121 207.01099121 -37.79448242 207.64698242 -37.30224609 208.30224609 C-34 212.77171811 -34 212.77171811 -34 215 C-29.05 215 -24.1 215 -19 215 C-19 211.7 -19 208.4 -19 205 C-16.11904247 207.73628063 -13.83642489 210.51612722 -11.625 213.8125 C-0.94374635 229.16119222 14.07035744 239.24876788 32.5234375 243.4765625 C39.96129212 244.59641926 47.49028433 244.77219482 55 245 C54.46562666 248.93243968 53.48350983 251.14217486 50.875 254.125 C50.31554687 254.78757812 49.75609375 255.45015625 49.1796875 256.1328125 C42.22915429 262.08685349 34.46863626 261.4466059 25.76220703 261.43579102 C24.31765974 261.44477733 22.87311963 261.45498758 21.42858887 261.46632385 C17.519394 261.49273759 13.61039634 261.49985359 9.70112085 261.50177121 C7.2551829 261.50390855 4.80929457 261.51032244 2.36336899 261.51826286 C-6.17982397 261.54598653 -14.72287683 261.55827197 -23.26611328 261.5559082 C-31.21374438 261.5541061 -39.16076445 261.58576506 -47.10824096 261.63313919 C-53.94586255 261.67243663 -60.78328495 261.68845698 -67.62101853 261.68654197 C-71.6986945 261.68577916 -75.77582687 261.69421282 -79.85338974 261.72607613 C-83.69015686 261.75524181 -87.52586522 261.75527644 -91.3626709 261.73352623 C-92.76506228 261.73040375 -94.16752102 261.73738825 -95.56979752 261.7556076 C-104.3077649 261.86172277 -110.44387833 261.10301304 -117 255 C-122.99078515 247.62672597 -123.29543043 240.5522241 -123.2746582 231.43017578 C-123.2823246 229.69249435 -123.2823246 229.69249435 -123.29014587 227.91970825 C-123.30403199 224.09485693 -123.30308574 220.27018601 -123.30078125 216.4453125 C-123.30368591 214.45583368 -123.30659542 212.46635479 -123.310188 210.47687709 C-123.32126775 204.22366144 -123.32172945 197.97050587 -123.31567383 191.71728516 C-123.30963678 185.28137194 -123.32194158 178.8456775 -123.3432439 172.4098016 C-123.36089896 166.87073382 -123.36685506 161.33173543 -123.36360615 155.79264057 C-123.36179911 152.490344 -123.36569742 149.18823752 -123.37832069 145.88595963 C-123.39068108 142.20000698 -123.38389503 138.51455809 -123.37231445 134.82861328 C-123.37995819 133.74471313 -123.38760193 132.66081299 -123.39547729 131.54406738 C-123.34667496 124.50286775 -122.66541942 118.64639702 -118.38671875 112.79296875 C-113.64768137 108.3153955 -109.80647833 105 -103 105 C-103.00666183 104.44004837 -103.01332367 103.88009674 -103.02018738 103.30317688 C-103.08716245 97.41335868 -103.13205514 91.52365067 -103.16479492 85.63354492 C-103.17977282 83.44274493 -103.20016228 81.25197435 -103.22631836 79.0612793 C-103.40032732 64.0999202 -103.52561423 50.41074256 -96.3125 36.875 C-95.96364746 36.2039624 -95.61479492 35.5329248 -95.25537109 34.84155273 C-84.99387089 15.58338475 -68.96279457 2.41830635 -48 -4 C-32.05248856 -7.043061 -14.94730843 -6.46741999 0 0 Z " fill="#238FCA" transform="translate(503,337)"/>
<path d="M0 0 C14.02722385 12.27382087 23.90634804 26.9752276 26.21875 45.83203125 C26.83594327 55.80814127 26.80456805 65.38890083 23.21875 74.83203125 C22.84363281 75.83878906 22.46851563 76.84554687 22.08203125 77.8828125 C19.8967225 83.41846842 17.52588898 88.34790479 13.94140625 93.11328125 C12.96818864 94.87663616 12.96818864 94.87663616 13.98828125 96.875 C14.39433594 97.52082031 14.80039062 98.16664063 15.21875 98.83203125 C15.755 99.76015625 16.29125 100.68828125 16.84375 101.64453125 C17.6275 102.36640625 18.41125 103.08828125 19.21875 103.83203125 C20.42418457 103.56817627 21.62961914 103.30432129 22.87158203 103.0324707 C25.59418386 102.61803114 26.78934614 102.58053504 29.1918335 103.98764038 C31.29722289 105.8359482 33.2254485 107.77492667 35.1484375 109.8125 C35.86484406 110.53689774 36.58125061 111.26129547 37.31936646 112.00764465 C39.59933441 114.32466944 41.84564546 116.67162318 44.09375 119.01953125 C45.62823478 120.58201876 47.16467367 122.14258974 48.703125 123.70117188 C54.32732481 129.44497899 54.32732481 129.44497899 57.08935547 132.33276367 C57.64702606 132.91313889 58.20469666 133.4935141 58.77926636 134.09147644 C61.87563974 137.83546312 62.61981702 140.90414564 62.46484375 145.80859375 C61.90369799 150.4224589 60.00161969 153.10644471 56.65625 156.20703125 C51.93572966 158.43854996 48.33290333 158.85695944 43.21875 157.83203125 C41.45825195 156.70825195 41.45825195 156.70825195 39.76953125 155.1328125 C39.0847168 154.49835205 38.39990234 153.8638916 37.69433594 153.21020508 C36.87739258 152.42540771 36.06044922 151.64061035 35.21875 150.83203125 C34.719198 150.35816986 34.219646 149.88430847 33.70495605 149.39608765 C30.14486282 146.01820859 26.62764232 142.59987439 23.13452148 139.15283203 C21.89261433 137.93268402 20.64447314 136.7188509 19.39038086 135.51123047 C17.55933879 133.74712255 15.74879896 131.96407298 13.94140625 130.17578125 C13.38107193 129.64327759 12.82073761 129.11077393 12.24342346 128.56213379 C8.54789885 124.84668692 7.48865386 122.23499362 7.21875 116.83203125 C6.67728549 113.04177966 5.26755 111.18396268 2.21875 108.83203125 C-1.74696697 109.18930305 -4.90409675 111.61499287 -8.21875 113.64453125 C-23.67936846 122.80539665 -42.05483526 125.5161367 -59.53125 121.26953125 C-78.25818628 115.58209134 -93.57267488 103.42802522 -102.8203125 86.12109375 C-110.66130079 70.65396576 -113.12468654 50.6155915 -107.9375 33.78125 C-100.25806142 14.19349281 -88.36253258 -0.74511418 -68.65625 -9.60546875 C-45.52562611 -18.68172443 -19.78687185 -15.42375544 0 0 Z " fill="#EEEFEF" transform="translate(593.78125,452.16796875)"/>
<path d="M0 0 C14.02722385 12.27382087 23.90634804 26.9752276 26.21875 45.83203125 C26.83594327 55.80814127 26.80456805 65.38890083 23.21875 74.83203125 C22.84363281 75.83878906 22.46851563 76.84554687 22.08203125 77.8828125 C19.8967225 83.41846842 17.52588898 88.34790479 13.94140625 93.11328125 C12.96818864 94.87663616 12.96818864 94.87663616 13.98828125 96.875 C14.39433594 97.52082031 14.80039062 98.16664063 15.21875 98.83203125 C15.755 99.76015625 16.29125 100.68828125 16.84375 101.64453125 C17.6275 102.36640625 18.41125 103.08828125 19.21875 103.83203125 C20.42418457 103.56817627 21.62961914 103.30432129 22.87158203 103.0324707 C25.59418386 102.61803114 26.78934614 102.58053504 29.1918335 103.98764038 C31.29722289 105.8359482 33.2254485 107.77492667 35.1484375 109.8125 C35.86484406 110.53689774 36.58125061 111.26129547 37.31936646 112.00764465 C39.59933441 114.32466944 41.84564546 116.67162318 44.09375 119.01953125 C45.62823478 120.58201876 47.16467367 122.14258974 48.703125 123.70117188 C54.32732481 129.44497899 54.32732481 129.44497899 57.08935547 132.33276367 C57.64702606 132.91313889 58.20469666 133.4935141 58.77926636 134.09147644 C61.87563974 137.83546312 62.61981702 140.90414564 62.46484375 145.80859375 C61.90369799 150.4224589 60.00161969 153.10644471 56.65625 156.20703125 C51.93572966 158.43854996 48.33290333 158.85695944 43.21875 157.83203125 C41.45825195 156.70825195 41.45825195 156.70825195 39.76953125 155.1328125 C39.0847168 154.49835205 38.39990234 153.8638916 37.69433594 153.21020508 C36.87739258 152.42540771 36.06044922 151.64061035 35.21875 150.83203125 C34.719198 150.35816986 34.219646 149.88430847 33.70495605 149.39608765 C30.14486282 146.01820859 26.62764232 142.59987439 23.13452148 139.15283203 C21.89261433 137.93268402 20.64447314 136.7188509 19.39038086 135.51123047 C17.55933879 133.74712255 15.74879896 131.96407298 13.94140625 130.17578125 C13.38107193 129.64327759 12.82073761 129.11077393 12.24342346 128.56213379 C8.54789885 124.84668692 7.48865386 122.23499362 7.21875 116.83203125 C6.67728549 113.04177966 5.26755 111.18396268 2.21875 108.83203125 C-1.74696697 109.18930305 -4.90409675 111.61499287 -8.21875 113.64453125 C-23.67936846 122.80539665 -42.05483526 125.5161367 -59.53125 121.26953125 C-78.25818628 115.58209134 -93.57267488 103.42802522 -102.8203125 86.12109375 C-110.66130079 70.65396576 -113.12468654 50.6155915 -107.9375 33.78125 C-100.25806142 14.19349281 -88.36253258 -0.74511418 -68.65625 -9.60546875 C-45.52562611 -18.68172443 -19.78687185 -15.42375544 0 0 Z M-81.78125 17.83203125 C-94.19989321 31.43917742 -95.66143338 45.27547548 -95.00341797 62.97363281 C-94.54404436 68.88390334 -92.68118126 73.65778841 -89.78125 78.83203125 C-89.27335937 79.78980469 -88.76546875 80.74757813 -88.2421875 81.734375 C-80.8138278 94.56677837 -68.63370872 103.38697643 -54.34375 107.26953125 C-38.40634294 109.85715454 -23.3848097 106.88660348 -10.10546875 97.63671875 C0.77497795 89.1883719 9.11422704 76.63055441 11.21875 62.83203125 C12.14608393 45.55152018 9.53334176 31.31791676 -1.84375 17.64453125 C-11.69980712 7.1891193 -24.38543777 1.28356653 -38.6484375 0.6640625 C-56.25460075 0.45994566 -69.27558814 4.78358893 -81.78125 17.83203125 Z " fill="#268ECA" transform="translate(593.78125,452.16796875)"/>
<path d="M0 0 C0.8259668 0.35336426 1.65193359 0.70672852 2.50292969 1.07080078 C22.88154819 9.94366181 53.6262631 26.33408493 63.26171875 47.8125 C63.50535156 48.534375 63.74898437 49.25625 64 50 C58.375 55 58.375 55 55 55 C53.16015625 53.015625 53.16015625 53.015625 51.0625 50.25 C29.53200069 23.25033848 -0.41830108 8.32846606 -34 2 C-34.92014893 1.8242041 -35.84029785 1.6484082 -36.78833008 1.46728516 C-42.38703196 0.65269638 -48.02592493 0.77483079 -53.67285156 0.75976562 C-55.83439443 0.75018007 -57.99493455 0.71916763 -60.15625 0.6875 C-70.09752074 0.61195659 -79.31088971 1.81557587 -89 4 C-89.81726563 4.17756836 -90.63453125 4.35513672 -91.4765625 4.53808594 C-114.89881292 9.95820553 -135.7793957 22.50795973 -153 39 C-153.845625 39.804375 -154.69125 40.60875 -155.5625 41.4375 C-156.7690625 42.7059375 -156.7690625 42.7059375 -158 44 C-158.65355469 44.6703125 -159.30710937 45.340625 -159.98046875 46.03125 C-181.09930022 68.42230024 -191.79917085 98.33195983 -192.625 128.75 C-192.68300781 130.52890625 -192.68300781 130.52890625 -192.7421875 132.34375 C-192.83525832 135.22894539 -192.91865661 138.11445017 -193 141 C-196.63 141 -200.26 141 -204 141 C-204.34447908 127.94807048 -203.95181448 115.73974146 -201 103 C-200.70996094 101.72640625 -200.41992188 100.4528125 -200.12109375 99.140625 C-191.11431956 62.81204625 -168.06995903 31.38291162 -136.08789062 11.83105469 C-95.74576997 -12.28262158 -43.92974665 -18.91176566 0 0 Z " fill="#94C3E4" transform="translate(552,300)"/>
<path d="M0 0 C1.61784893 0.97856646 3.19631193 2.02149962 4.76953125 3.0703125 C4.76953125 3.7303125 4.76953125 4.3903125 4.76953125 5.0703125 C4.10953125 5.0703125 3.44953125 5.0703125 2.76953125 5.0703125 C2.43953125 6.0603125 2.10953125 7.0503125 1.76953125 8.0703125 C-0.52076027 7.54178369 -2.55907415 6.93065521 -4.73046875 6.0078125 C-11.28393476 4.25241982 -18.40459127 3.82222571 -24.66796875 6.7578125 C-30.94583469 10.47514098 -35.6922374 15.96664424 -37.8203125 23.02734375 C-39.33923522 30.59302548 -38.15846978 37.41361607 -34.23046875 44.0703125 C-29.52726341 49.50807486 -23.93731106 53.42384805 -16.69921875 54.41796875 C-9.52681486 54.81083919 -4.09735748 53.2210365 1.76953125 49.0703125 C6.62301551 44.61229733 10.36431873 40.09928265 11.04296875 33.3515625 C11.07648437 32.43375 11.11 31.5159375 11.14453125 30.5703125 C11.48836705 25.93790648 12.14147134 23.25860757 15.76953125 20.0703125 C16.42953125 20.0703125 17.08953125 20.0703125 17.76953125 20.0703125 C20.70376867 25.93878734 19.23071898 34.71653337 17.33203125 40.7578125 C13.95167741 48.92799634 7.88425967 55.85034309 -0.30859375 59.3515625 C-0.9428125 59.58875 -1.57703125 59.8259375 -2.23046875 60.0703125 C-3.01421875 60.42480469 -3.79796875 60.77929688 -4.60546875 61.14453125 C-11.41374119 63.54566305 -19.4768227 62.68313244 -26.13671875 60.11328125 C-36.15623003 55.12221873 -41.71529444 47.51244794 -45.23046875 37.0703125 C-47.60780073 28.86059273 -46.43331239 21.67220283 -42.8984375 13.96875 C-38.55445012 6.42018177 -32.32010796 1.13939187 -24.2578125 -2.1171875 C-15.91776538 -4.35554853 -7.69628146 -3.9732237 0 0 Z " fill="#91C84B" transform="translate(620.23046875,373.9296875)"/>
<path d="M0 0 C2.53618374 1.39081044 4.16671141 2.7670333 5.9375 5.0625 C5.70254188 9.1612139 3.16735828 11.10426586 0.3125 13.8125 C-2.71526687 16.74631641 -5.65776248 19.65127488 -8.375 22.875 C-12.1081449 27.24659248 -16.2013065 31.23103016 -20.28857422 35.2668457 C-23.84618746 38.79609293 -27.23138515 42.39483834 -30.40234375 46.28125 C-32.75507792 48.80559537 -35.38430306 50.8871634 -38.0625 53.0625 C-41.10344153 50.16619567 -44.11645095 47.24240886 -47.125 44.3125 C-47.99189453 43.4875 -48.85878906 42.6625 -49.75195312 41.8125 C-50.97495117 40.61367188 -50.97495117 40.61367188 -52.22265625 39.390625 C-52.98199463 38.6574707 -53.74133301 37.92431641 -54.52368164 37.16894531 C-56.0625 35.0625 -56.0625 35.0625 -55.93139648 32.93261719 C-54.77065013 30.43435445 -53.09084918 28.89455733 -51.0625 27.0625 C-47.82388697 28.50674635 -45.44280837 30.32022247 -42.8125 32.6875 C-42.10609375 33.31914062 -41.3996875 33.95078125 -40.671875 34.6015625 C-40.14078125 35.08367187 -39.6096875 35.56578125 -39.0625 36.0625 C-35.42089901 34.52738177 -33.09806785 32.34253346 -30.32421875 29.5546875 C-29.42123047 28.64976562 -28.51824219 27.74484375 -27.58789062 26.8125 C-27.1210083 26.33941406 -26.65412598 25.86632812 -26.1730957 25.37890625 C-24.77015879 23.95791817 -23.35876507 22.54529557 -21.94726562 21.1328125 C-16.78310493 15.93561879 -11.80951937 10.6423728 -7.0625 5.0625 C-2.82754578 0.08568321 -2.82754578 0.08568321 0 0 Z " fill="#90C84C" transform="translate(643.0625,367.9375)"/>
<path d="M0 0 C3.54249117 -0.10825949 7.08165249 -0.18744405 10.625 -0.25 C11.62402344 -0.28351563 12.62304688 -0.31703125 13.65234375 -0.3515625 C21.50158307 -0.45552593 24.50637514 0.96606262 30.375 6.0625 C32.8817801 10.5939871 32.6261403 14.93742664 32 20 C30.30106982 24.20261675 27.6864981 26.41945133 24 29 C20.85069107 30.04976964 18.61185544 30.10131595 15.3125 30.0625 C14.31863281 30.05347656 13.32476563 30.04445313 12.30078125 30.03515625 C11.16189453 30.01775391 11.16189453 30.01775391 10 30 C10 32.97 10 35.94 10 39 C6.7 39 3.4 39 0 39 C0 32.73 0 26.46 0 20 C1.42054688 19.95101563 2.84109375 19.90203125 4.3046875 19.8515625 C6.16147856 19.77654064 8.01824841 19.70099256 9.875 19.625 C10.81214844 19.5940625 11.74929688 19.563125 12.71484375 19.53125 C13.61074219 19.49257813 14.50664063 19.45390625 15.4296875 19.4140625 C16.25710449 19.3826416 17.08452148 19.3512207 17.93701172 19.31884766 C20.21986085 19.17400863 20.21986085 19.17400863 22 17 C22 15.02 22 13.04 22 11 C14.74 10.67 7.48 10.34 0 10 C0 6.7 0 3.4 0 0 Z " fill="#3192CD" transform="translate(561,490)"/>
<path d="M0 0 C1.175625 0.02707031 1.175625 0.02707031 2.375 0.0546875 C4.29220189 0.10144852 6.20876715 0.17317997 8.125 0.25 C8.125 2.89 8.125 5.53 8.125 8.25 C7.30515625 8.27578125 6.4853125 8.3015625 5.640625 8.328125 C4.02414062 8.41320312 4.02414062 8.41320312 2.375 8.5 C0.77398438 8.56960938 0.77398438 8.56960938 -0.859375 8.640625 C-4.44365751 9.36491007 -5.71303523 10.33742644 -7.875 13.25 C-7.78272434 17.09217815 -7.78272434 17.09217815 -5.875 20.25 C-3.34903741 20.48653523 -0.84392793 20.67173692 1.6875 20.8125 C2.75387695 20.87727539 2.75387695 20.87727539 3.84179688 20.94335938 C5.60261912 21.04971777 7.3637832 21.15038846 9.125 21.25 C8.98450482 22.72968324 8.83745174 24.20874516 8.6875 25.6875 C8.60628906 26.51121094 8.52507813 27.33492187 8.44140625 28.18359375 C8.125 30.25 8.125 30.25 7.125 31.25 C4.71146168 31.43153617 2.35375181 31.52814571 -0.0625 31.5625 C-1.37605469 31.59988281 -2.68960938 31.63726563 -4.04296875 31.67578125 C-9.17592461 31.10545282 -12.12027132 29.19244384 -15.5546875 25.390625 C-18.71879667 20.3859556 -19.72084532 17.17091723 -18.875 11.25 C-15.58896732 2.23635728 -9.08810801 -0.4004929 0 0 Z " fill="#2A8FCA" transform="translate(525.875,490.75)"/>
<path d="M0 0 C1.23556641 0.01740234 1.23556641 0.01740234 2.49609375 0.03515625 C3.32238281 0.04417969 4.14867187 0.05320312 5 0.0625 C5.63808594 0.07410156 6.27617188 0.08570313 6.93359375 0.09765625 C5.50312181 6.34391456 3.53156968 12.22255409 1.2734375 18.21484375 C0.92350235 19.15321075 0.5735672 20.09157776 0.21302795 21.05838013 C-0.52207407 23.02729977 -1.25921276 24.9954601 -1.99829102 26.96289062 C-3.1327117 29.9827866 -4.26123217 33.0048354 -5.38867188 36.02734375 C-6.10513098 37.9441367 -6.82191625 39.86080778 -7.5390625 41.77734375 C-7.87760757 42.68249725 -8.21615265 43.58765076 -8.56495667 44.52023315 C-8.87875778 45.35515289 -9.1925589 46.19007263 -9.51586914 47.05029297 C-9.7918544 47.78561249 -10.06783966 48.52093201 -10.35218811 49.27853394 C-11.06640625 51.09765625 -11.06640625 51.09765625 -12.06640625 53.09765625 C-15.03640625 53.09765625 -18.00640625 53.09765625 -21.06640625 53.09765625 C-19.5679839 44.99215522 -16.74300196 37.56965209 -13.75390625 29.91015625 C-12.79808945 27.43803687 -11.84365852 24.9653812 -10.890625 22.4921875 C-10.42317871 21.28127441 -9.95573242 20.07036133 -9.47412109 18.82275391 C-7.58462695 13.82277097 -5.81262863 8.78567303 -4.05786133 3.73706055 C-2.70205446 0.12769634 -2.70205446 0.12769634 0 0 Z " fill="#2A90CB" transform="translate(555.06640625,478.90234375)"/>
<path d="M0 0 C0.66 0.33 1.32 0.66 2 1 C-1.3 4.63 -4.6 8.26 -8 12 C-8.66 11.67 -9.32 11.34 -10 11 C-6.7 7.37 -3.4 3.74 0 0 Z " fill="#DEE9EC" transform="translate(501,449)"/>
</svg>
